<svg width="144" height="144" viewBox="0 0 144 144" fill="none" xmlns="http://www.w3.org/2000/svg">
<g filter="url(#filter0_d_456_624)">
<circle cx="72" cy="68" r="32" fill="white"/>
</g>
<path d="M61.3334 69.3332L78.8934 69.3332L75.0534 73.1732C74.5334 73.6932 74.5334 74.5332 75.0534 75.0532C75.5734 75.5732 76.4134 75.5732 76.9334 75.0532L83.0534 68.9332C83.5734 68.4132 83.5734 67.5732 83.0534 67.0532L76.9334 60.9332C76.4134 60.4132 75.5734 60.4132 75.0534 60.9332C74.5334 61.4532 74.5334 62.2932 75.0534 62.8132L78.8934 66.6665L61.3334 66.6665C60.6 66.6665 60 67.2665 60 67.9998C60 68.7332 60.6 69.3332 61.3334 69.3332Z" fill="#383736"/>
<defs>
<filter id="filter0_d_456_624" x="0" y="0" width="144" height="144" filterUnits="userSpaceOnUse" color-interpolation-filters="sRGB">
<feFlood flood-opacity="0" result="BackgroundImageFix"/>
<feColorMatrix in="SourceAlpha" type="matrix" values="0 0 0 0 0 0 0 0 0 0 0 0 0 0 0 0 0 0 127 0" result="hardAlpha"/>
<feOffset dy="4"/>
<feGaussianBlur stdDeviation="20"/>
<feColorMatrix type="matrix" values="0 0 0 0 0 0 0 0 0 0 0 0 0 0 0 0 0 0 0.15 0"/>
<feBlend mode="normal" in2="BackgroundImageFix" result="effect1_dropShadow_456_624"/>
<feBlend mode="normal" in="SourceGraphic" in2="effect1_dropShadow_456_624" result="shape"/>
</filter>
</defs>
</svg>
