<svg width="144" height="144" viewBox="0 0 144 144" fill="none" xmlns="http://www.w3.org/2000/svg">
<g filter="url(#filter0_d_615_1875)">
<circle cx="72" cy="68" r="32" fill="white"/>
</g>
<path d="M61.3334 69.3331L78.8934 69.3331L75.0534 73.1731C74.5334 73.6931 74.5334 74.5331 75.0534 75.0531C75.5734 75.5731 76.4134 75.5731 76.9334 75.0531L83.0534 68.9331C83.5734 68.4131 83.5734 67.5731 83.0534 67.0531L76.9334 60.9331C76.4134 60.4131 75.5734 60.4131 75.0534 60.9331C74.5334 61.4531 74.5334 62.2931 75.0534 62.8131L78.8934 66.6664L61.3334 66.6664C60.6 66.6664 60 67.2664 60 67.9998C60 68.7331 60.6 69.3331 61.3334 69.3331Z" fill="#BDBDBD"/>
<defs>
<filter id="filter0_d_615_1875" x="0" y="0" width="144" height="144" filterUnits="userSpaceOnUse" color-interpolation-filters="sRGB">
<feFlood flood-opacity="0" result="BackgroundImageFix"/>
<feColorMatrix in="SourceAlpha" type="matrix" values="0 0 0 0 0 0 0 0 0 0 0 0 0 0 0 0 0 0 127 0" result="hardAlpha"/>
<feOffset dy="4"/>
<feGaussianBlur stdDeviation="20"/>
<feColorMatrix type="matrix" values="0 0 0 0 0 0 0 0 0 0 0 0 0 0 0 0 0 0 0.15 0"/>
<feBlend mode="normal" in2="BackgroundImageFix" result="effect1_dropShadow_615_1875"/>
<feBlend mode="normal" in="SourceGraphic" in2="effect1_dropShadow_615_1875" result="shape"/>
</filter>
</defs>
</svg>
