<svg width="20" height="20" viewBox="0 0 20 20" fill="none" xmlns="http://www.w3.org/2000/svg">
<g clip-path="url(#clip0_456_5091)">
<path d="M16.125 8.36683C15.5583 5.49183 13.0333 3.3335 10 3.3335C7.59167 3.3335 5.5 4.70016 4.45833 6.70016C1.95 6.96683 0 9.09183 0 11.6668C0 14.4252 2.24167 16.6668 5 16.6668H15.8333C18.1333 16.6668 20 14.8002 20 12.5002C20 10.3002 18.2917 8.51683 16.125 8.36683ZM11.6667 10.8335V14.1668H8.33333V10.8335H5.83333L9.70833 6.9585C9.875 6.79183 10.1333 6.79183 10.3 6.9585L14.1667 10.8335H11.6667Z" fill="#707070"/>
</g>
<defs>
<clipPath id="clip0_456_5091">
<rect width="20" height="20" fill="white"/>
</clipPath>
</defs>
</svg>
