<svg width="32" height="32" viewBox="0 0 32 32" fill="none" xmlns="http://www.w3.org/2000/svg">
<path fill-rule="evenodd" clip-rule="evenodd" d="M16.4714 5.52855C16.2111 5.26821 15.7889 5.26821 15.5286 5.52855C15.2682 5.7889 15.2682 6.21101 15.5286 6.47136C15.7889 6.73171 16.2111 6.73171 16.4714 6.47136C16.7318 6.21101 16.7318 5.7889 16.4714 5.52855ZM13.643 3.64294C14.9447 2.34119 17.0553 2.34119 18.357 3.64294C18.9632 4.2491 19.2871 5.03064 19.3287 5.82423L24.2743 7.67882C24.286 7.66679 24.2978 7.65483 24.3096 7.64294C25.6114 6.34119 27.7219 6.34119 29.0237 7.64294C30.3254 8.94468 30.3254 11.0552 29.0237 12.357C27.7219 13.6587 25.6114 13.6587 24.3096 12.357C23.7035 11.7508 23.3796 10.9693 23.3379 10.1757L18.3924 8.3211C18.3807 8.33313 18.3689 8.34509 18.357 8.35698C17.2726 9.44136 15.627 9.62243 14.3552 8.90021L8.57778 13.2333C8.83343 14.3198 8.53762 15.5097 7.69036 16.357C6.38861 17.6587 4.27806 17.6587 2.97631 16.357C1.67456 15.0552 1.67456 12.9447 2.97631 11.6429C4.06068 10.5586 5.7063 10.3775 6.97811 11.0997L12.7556 6.76663C12.4999 5.68011 12.7957 4.49021 13.643 3.64294ZM27.1381 9.52855C26.8777 9.26821 26.4556 9.26821 26.1953 9.52855C25.9349 9.7889 25.9349 10.211 26.1953 10.4714C26.4556 10.7317 26.8777 10.7317 27.1381 10.4714C27.3984 10.211 27.3984 9.7889 27.1381 9.52855ZM5.80474 13.5286C5.54439 13.2682 5.12228 13.2682 4.86193 13.5286C4.60158 13.7889 4.60158 14.211 4.86193 14.4714C5.12228 14.7317 5.54439 14.7317 5.80474 14.4714C6.06509 14.211 6.06509 13.7889 5.80474 13.5286ZM16 12C16.7364 12 17.3333 12.5969 17.3333 13.3333V26.6666C17.3333 27.403 16.7364 28 16 28C15.2636 28 14.6667 27.403 14.6667 26.6666V13.3333C14.6667 12.5969 15.2636 12 16 12ZM26.6667 16C27.403 16 28 16.5969 28 17.3333V26.6666C28 27.403 27.403 28 26.6667 28C25.9303 28 25.3333 27.403 25.3333 26.6666V17.3333C25.3333 16.5969 25.9303 16 26.6667 16ZM5.33333 20C6.06971 20 6.66667 20.5969 6.66667 21.3333L6.66667 26.6666C6.66667 27.403 6.06971 28 5.33333 28C4.59695 28 4 27.403 4 26.6666L4 21.3333C4 20.5969 4.59695 20 5.33333 20Z" fill="#707070"/>
</svg>
