<svg width="20" height="20" viewBox="0 0 20 20" fill="none" xmlns="http://www.w3.org/2000/svg">
<g clip-path="url(#clip0_456_5059)">
<path d="M19.1667 9.17484L15 9.1665C14.5417 9.1665 14.1667 9.5415 14.1667 9.99984V17.4998C14.1667 17.9582 14.5417 18.3332 15 18.3332H19.1667C19.625 18.3332 20 17.9582 20 17.4998V9.99984C20 9.5415 19.625 9.17484 19.1667 9.17484ZM19.1667 16.6665H15V10.8332H19.1667V16.6665ZM16.6667 1.6665H1.66667C0.75 1.6665 0 2.4165 0 3.33317V13.3332C0 14.2498 0.75 14.9998 1.66667 14.9998H7.5V16.6665H6.66667C6.20833 16.6665 5.83333 17.0415 5.83333 17.4998C5.83333 17.9582 6.20833 18.3332 6.66667 18.3332H11.6667C12.125 18.3332 12.5 17.9582 12.5 17.4998C12.5 17.0415 12.125 16.6665 11.6667 16.6665H10.8333V14.9998H11.6667C12.125 14.9998 12.5 14.6248 12.5 14.1665C12.5 13.7082 12.125 13.3332 11.6667 13.3332H2.5C2.04167 13.3332 1.66667 12.9582 1.66667 12.4998V4.1665C1.66667 3.70817 2.04167 3.33317 2.5 3.33317H15.8333C16.2917 3.33317 16.6667 3.70817 16.6667 4.1665V6.6665C16.6667 7.12484 17.0417 7.49984 17.5 7.49984C17.9583 7.49984 18.3333 7.12484 18.3333 6.6665V3.33317C18.3333 2.4165 17.5833 1.6665 16.6667 1.6665ZM9.975 7.49984L9.16667 4.99984L8.35833 7.49984H5.83333L7.89167 8.9665L7.10833 11.3915L9.16667 9.8915L11.225 11.3915L10.4417 8.9665L12.5 7.49984H9.975Z" fill="#707070"/>
</g>
<defs>
<clipPath id="clip0_456_5059">
<rect width="20" height="20" fill="white"/>
</clipPath>
</defs>
</svg>
