<svg width="32" height="32" viewBox="0 0 32 32" fill="none" xmlns="http://www.w3.org/2000/svg">
<g clip-path="url(#clip0_456_4848)">
<path d="M11.9993 28C11.9993 28.7333 12.5993 29.3333 13.3327 29.3333H18.666C19.3993 29.3333 19.9993 28.7333 19.9993 28V26.6666H11.9993V28ZM15.9993 2.66663C10.8527 2.66663 6.66602 6.85329 6.66602 12C6.66602 15.1733 8.25268 17.96 10.666 19.6533V22.6666C10.666 23.4 11.266 24 11.9993 24H19.9993C20.7327 24 21.3327 23.4 21.3327 22.6666V19.6533C23.746 17.96 25.3327 15.1733 25.3327 12C25.3327 6.85329 21.146 2.66663 15.9993 2.66663ZM18.666 18.2666V21.3333H13.3327V18.2666C11.306 16.84 9.33268 15.3733 9.33268 12C9.33268 8.31996 12.3193 5.33329 15.9993 5.33329C19.6793 5.33329 22.666 8.31996 22.666 12C22.666 15.32 20.6527 16.8666 18.666 18.2666Z" fill="#707070"/>
</g>
<defs>
<clipPath id="clip0_456_4848">
<rect width="32" height="32" fill="white"/>
</clipPath>
</defs>
</svg>
