<svg width="20" height="20" viewBox="0 0 20 20" fill="none" xmlns="http://www.w3.org/2000/svg">
<g clip-path="url(#clip0_456_5039)">
<path d="M0.833333 4.99984C0.375 4.99984 0 5.37484 0 5.83317V9.1665H0.00833333L0 16.6665C0 17.5832 0.75 18.3332 1.66667 18.3332H15.8333C16.2917 18.3332 16.6667 17.9582 16.6667 17.4998C16.6667 17.0415 16.2917 16.6665 15.8333 16.6665H2.5C2.04167 16.6665 1.66667 16.2915 1.66667 15.8332V5.83317C1.66667 5.37484 1.29167 4.99984 0.833333 4.99984ZM18.3333 3.33317H11.6667L10.4917 2.15817C10.175 1.8415 9.75 1.6665 9.30833 1.6665H5C4.08333 1.6665 3.34167 2.4165 3.34167 3.33317L3.33333 13.3332C3.33333 14.2498 4.08333 14.9998 5 14.9998H18.3333C19.25 14.9998 20 14.2498 20 13.3332V4.99984C20 4.08317 19.25 3.33317 18.3333 3.33317ZM6.33333 11.8332L9.25833 7.93317C9.425 7.7165 9.75 7.70817 9.925 7.92484L12.5083 11.2498L14.2583 9.1415C14.425 8.93317 14.7417 8.9415 14.9083 9.14984L16.9833 11.8165C17.2 12.0915 17 12.4915 16.6583 12.4915H6.66667C6.325 12.4998 6.125 12.1082 6.33333 11.8332Z" fill="#707070"/>
</g>
<defs>
<clipPath id="clip0_456_5039">
<rect width="20" height="20" fill="white"/>
</clipPath>
</defs>
</svg>
