<svg width="32" height="32" viewBox="0 0 32 32" fill="none" xmlns="http://www.w3.org/2000/svg">
<path d="M28.0007 28H17.334M3.33398 28.6666L10.733 25.8208C11.2063 25.6388 11.4429 25.5478 11.6643 25.429C11.8609 25.3234 12.0484 25.2016 12.2247 25.0648C12.4232 24.9107 12.6025 24.7315 12.961 24.3729L28.0007 9.33329C29.4734 7.86053 29.4734 5.47272 28.0007 3.99996C26.5279 2.5272 24.1401 2.5272 22.6674 3.99995L7.62769 19.0396C7.26915 19.3981 7.08988 19.5774 6.93584 19.7759C6.79901 19.9522 6.67719 20.1397 6.57163 20.3363C6.45279 20.5577 6.36178 20.7943 6.17976 21.2676L3.33398 28.6666ZM3.33398 28.6666L6.07815 21.5319C6.27451 21.0213 6.3727 20.7661 6.5411 20.6491C6.68828 20.5469 6.87039 20.5083 7.04638 20.5419C7.24776 20.5804 7.44116 20.7738 7.82796 21.1606L10.8401 24.1727C11.2269 24.5595 11.4203 24.7529 11.4587 24.9543C11.4923 25.1303 11.4537 25.3124 11.3515 25.4595C11.2346 25.6279 10.9793 25.7261 10.4687 25.9225L3.33398 28.6666Z" stroke="#707070" stroke-width="2.5" stroke-linecap="round" stroke-linejoin="round"/>
</svg>
