<svg width="20" height="20" viewBox="0 0 20 20" fill="none" xmlns="http://www.w3.org/2000/svg">
<g clip-path="url(#clip0_456_5080)">
<path d="M10.833 14.9998V16.6665H15.833V18.3332H10.833C10.391 18.3332 9.96706 18.1576 9.6545 17.845C9.34194 17.5325 9.16634 17.1085 9.16634 16.6665V14.9998H6.66634C5.78229 14.9998 4.93444 14.6486 4.30932 14.0235C3.6842 13.3984 3.33301 12.5506 3.33301 11.6665V8.33317H16.6663V11.6665C16.6663 12.5506 16.3152 13.3984 15.69 14.0235C15.0649 14.6486 14.2171 14.9998 13.333 14.9998H10.833ZM13.333 4.99984H15.833C16.054 4.99984 16.266 5.08763 16.4223 5.24392C16.5785 5.4002 16.6663 5.61216 16.6663 5.83317V7.49984H3.33301V5.83317C3.33301 5.61216 3.42081 5.4002 3.57709 5.24392C3.73337 5.08763 3.94533 4.99984 4.16634 4.99984H6.66634V1.6665H8.33301V4.99984H11.6663V1.6665H13.333V4.99984ZM9.99967 12.0832C10.2207 12.0832 10.4326 11.9954 10.5889 11.8391C10.7452 11.6828 10.833 11.4709 10.833 11.2498C10.833 11.0288 10.7452 10.8169 10.5889 10.6606C10.4326 10.5043 10.2207 10.4165 9.99967 10.4165C9.77866 10.4165 9.5667 10.5043 9.41042 10.6606C9.25414 10.8169 9.16634 11.0288 9.16634 11.2498C9.16634 11.4709 9.25414 11.6828 9.41042 11.8391C9.5667 11.9954 9.77866 12.0832 9.99967 12.0832V12.0832Z" fill="#707070"/>
</g>
<defs>
<clipPath id="clip0_456_5080">
<rect width="20" height="20" fill="white"/>
</clipPath>
</defs>
</svg>
