<svg width="32" height="32" viewBox="0 0 32 32" fill="none" xmlns="http://www.w3.org/2000/svg">
<path fill-rule="evenodd" clip-rule="evenodd" d="M25.5475 1.35061C25.9706 1.41926 26.3348 1.6871 26.5265 2.07044L27.6611 4.33958L29.9302 5.47415C30.3136 5.66583 30.5814 6.03009 30.65 6.45315C30.7187 6.8762 30.5798 7.30647 30.2767 7.60953L26.2767 11.6095C26.0267 11.8596 25.6875 12.0001 25.3339 12.0001H21.8862L16.9434 16.9428C16.4227 17.4635 15.5785 17.4635 15.0578 16.9428C14.5371 16.4221 14.5371 15.5779 15.0578 15.0572L20.0006 10.1144V6.66672C20.0006 6.3131 20.1411 5.97396 20.3911 5.72391L24.3911 1.72391C24.6942 1.42085 25.1244 1.28195 25.5475 1.35061ZM22.6673 9.33339H24.7816L27.083 7.03199L26.071 6.52596C25.8129 6.39694 25.6037 6.18771 25.4747 5.92968L24.9687 4.91761L22.6673 7.21901V9.33339ZM16.0007 4.00006C9.37323 4.00006 4.00065 9.37264 4.00065 16.0001C4.00065 22.6275 9.37323 28.0001 16.0007 28.0001C22.6281 28.0001 28.0006 22.6275 28.0006 16.0001C28.0006 15.2637 28.5976 14.6667 29.334 14.6667C30.0704 14.6667 30.6673 15.2637 30.6673 16.0001C30.6673 24.1002 24.1008 30.6667 16.0007 30.6667C7.90047 30.6667 1.33398 24.1002 1.33398 16.0001C1.33398 7.89988 7.90047 1.33339 16.0007 1.33339C16.737 1.33339 17.334 1.93034 17.334 2.66672C17.334 3.4031 16.737 4.00006 16.0007 4.00006ZM16.0007 10.6667C13.0551 10.6667 10.6673 13.0545 10.6673 16.0001C10.6673 18.9456 13.0551 21.3334 16.0007 21.3334C18.9462 21.3334 21.334 18.9456 21.334 16.0001C21.334 15.2637 21.9309 14.6667 22.6673 14.6667C23.4037 14.6667 24.0006 15.2637 24.0006 16.0001C24.0006 20.4183 20.4189 24.0001 16.0007 24.0001C11.5824 24.0001 8.00065 20.4183 8.00065 16.0001C8.00065 11.5818 11.5824 8.00006 16.0007 8.00006C16.737 8.00006 17.334 8.59701 17.334 9.33339C17.334 10.0698 16.737 10.6667 16.0007 10.6667Z" fill="#707070"/>
</svg>
