<svg width="32" height="32" viewBox="0 0 32 32" fill="none" xmlns="http://www.w3.org/2000/svg">
<g clip-path="url(#clip0_456_4857)">
<path d="M24.254 16.5867L19.934 14.4267C21.654 13.0934 22.7607 11.0134 22.7607 8.66671C22.7607 4.62671 19.4673 1.33337 15.4273 1.33337C11.3873 1.33337 8.09398 4.62671 8.09398 8.66671C8.09398 11.5067 9.72065 13.9734 12.094 15.1867V19.5334C9.22732 18.92 9.40065 18.9467 9.08065 18.9467C8.37398 18.9467 7.70732 19.2267 7.20065 19.7334L5.33398 21.6267L12.1207 28.4134C12.694 29 13.494 29.3334 14.3207 29.3334H22.7207C24.0273 29.3334 25.134 28.4 25.3473 27.1067L26.414 20.8267C26.7073 19.0934 25.8407 17.3867 24.254 16.5867ZM23.7873 20.3867L22.7207 26.6667H14.3207C14.2007 26.6667 14.094 26.6134 14.0007 26.5334L9.09398 21.6267L14.7607 22.8134V8.66671C14.7607 8.29337 15.054 8.00004 15.4273 8.00004C15.8007 8.00004 16.094 8.29337 16.094 8.66671V16.6667H18.4407L23.054 18.9734C23.5873 19.24 23.8807 19.8134 23.7873 20.3867ZM10.7607 8.66671C10.7607 6.09337 12.854 4.00004 15.4273 4.00004C18.0007 4.00004 20.094 6.09337 20.094 8.66671C20.094 9.93337 19.5873 11.08 18.7607 11.92V8.66671C18.7607 6.82671 17.2673 5.33337 15.4273 5.33337C13.5873 5.33337 12.094 6.82671 12.094 8.66671V11.92C11.2673 11.08 10.7607 9.93337 10.7607 8.66671Z" fill="#707070"/>
</g>
<defs>
<clipPath id="clip0_456_4857">
<rect width="32" height="32" fill="white"/>
</clipPath>
</defs>
</svg>
