<svg width="20" height="20" viewBox="0 0 20 20" fill="none" xmlns="http://www.w3.org/2000/svg">
<g clip-path="url(#clip0_456_5112)">
<path d="M9.16696 7.29146V10.3581C9.16696 10.6498 9.32529 10.9248 9.57529 11.0748L12.1753 12.6165C12.4753 12.7915 12.8586 12.6915 13.0336 12.3998C13.2086 12.0998 13.117 11.7165 12.817 11.5415L10.4253 10.1165V7.28313C10.417 6.9498 10.1336 6.66646 9.79196 6.66646C9.45029 6.66646 9.16696 6.9498 9.16696 7.29146ZM17.5003 7.91646V3.50813C17.5003 3.13313 17.0503 2.9498 16.792 3.21646L15.3086 4.6998C13.8003 3.19146 11.6503 2.3248 9.30029 2.53313C5.80862 2.8498 2.93362 5.65813 2.55029 9.1498C2.05029 13.6665 5.57529 17.4998 10.0003 17.4998C13.8253 17.4998 16.9836 14.6331 17.442 10.9331C17.5003 10.4331 17.1086 9.9998 16.6086 9.9998C16.192 9.9998 15.842 10.3081 15.792 10.7165C15.4336 13.6248 12.9253 15.8748 9.91696 15.8331C6.82529 15.7915 4.21696 13.1831 4.16696 10.0831C4.11696 6.83313 6.75862 4.16646 10.0003 4.16646C11.6086 4.16646 13.067 4.8248 14.1253 5.8748L12.3836 7.61646C12.117 7.88313 12.3003 8.33313 12.6753 8.33313H17.0836C17.317 8.33313 17.5003 8.1498 17.5003 7.91646Z" fill="#707070"/>
</g>
<defs>
<clipPath id="clip0_456_5112">
<rect width="20" height="20" fill="white"/>
</clipPath>
</defs>
</svg>
