<svg width="20" height="20" viewBox="0 0 20 20" fill="none" xmlns="http://www.w3.org/2000/svg">
<g clip-path="url(#clip0_456_5102)">
<path d="M9.325 1.1335L3.49167 3.72516C2.89167 3.99183 2.5 4.59183 2.5 5.25016V9.16683C2.5 13.7918 5.7 18.1168 10 19.1668C14.3 18.1168 17.5 13.7918 17.5 9.16683V5.25016C17.5 4.59183 17.1083 3.99183 16.5083 3.72516L10.675 1.1335C10.25 0.941829 9.75 0.941829 9.325 1.1335V1.1335ZM7.74167 13.5752L5.58333 11.4168C5.25833 11.0918 5.25833 10.5668 5.58333 10.2418C5.90833 9.91683 6.43333 9.91683 6.75833 10.2418L8.33333 11.8085L13.2333 6.9085C13.5583 6.5835 14.0833 6.5835 14.4083 6.9085C14.7333 7.2335 14.7333 7.7585 14.4083 8.0835L8.91667 13.5752C8.6 13.9002 8.06667 13.9002 7.74167 13.5752Z" fill="#707070"/>
</g>
<defs>
<clipPath id="clip0_456_5102">
<rect width="20" height="20" fill="white"/>
</clipPath>
</defs>
</svg>
